<?xml version="1.0" encoding="UTF-8"?><svg id="b" xmlns="http://www.w3.org/2000/svg" xmlns:xlink="http://www.w3.org/1999/xlink" viewBox="0 0 720 720"><defs><linearGradient id="c" x1="40.41113" y1="296.08945" x2="679.58887" y2="296.08945" gradientUnits="userSpaceOnUse"><stop offset="0" stop-color="#27b4e1"/><stop offset=".49609" stop-color="#916aaa"/><stop offset=".83964" stop-color="#d33c88"/><stop offset="1" stop-color="#ee2a7b"/></linearGradient></defs><path d="M531.75415,251.77283c-6.54541,0-12.97412.49567-19.2605,1.42706.28979-3.75562.48364-7.53796.48364-11.36798,0-80.52173-65.27588-145.79791-145.79797-145.79791-77.0387,0-140.07806,59.763-145.39191,135.44983-7.32837-1.17218-14.83783-1.80164-22.49664-1.80164-78.08185,0-141.37964,63.29773-141.37964,141.37988,0,49.39868,25.49475,96.94574,63.87537,121.98505l155.39685,1.01746c-2.93488-8.73932-4.52728-18.09497-4.52728-27.82294,0-48.23871,39.10516-87.34393,87.34393-87.34393s87.34399,39.10522,87.34399,87.34393c0,10.13135-1.73096,19.85706-4.9032,28.90497l152.4696.99829c40.06348-22.23529,67.17847-64.96991,67.17847-114.03766,0-71.98181-58.35303-130.33441-130.33472-130.33441Z" style="fill:#e7f0f7;"/><path d="M594.9104,496.1449c40.06348-22.23529,67.17847-64.96991,67.17847-114.03766,0-71.98181-58.35303-130.33441-130.33472-130.33441-6.54541,0-12.97412.49567-19.2605,1.42706.28979-3.75562.48364-7.53796.48364-11.36798,0-80.52173-65.27588-145.79791-145.79797-145.79791-77.0387,0-140.07806,59.763-145.39191,135.44983-7.32837-1.17218-14.83783-1.80164-22.49664-1.80164-78.08185,0-141.37964,63.29773-141.37964,141.37988,0,49.39868,25.49475,96.94574,63.87537,121.98505" style="fill:none; stroke:url(#c); stroke-linecap:round; stroke-linejoin:round; stroke-width:35px;"/><path d="M511.60438,416.48749l-18.12965-.06336c-21.03271-.0735-34.14827-22.8309-23.66738-41.06634l9.00587-15.66909c7.53269-13.10594,3.03235-29.83622-10.05886-37.39446l-38.51439-22.23638c-13.08149-7.55263-29.80778-3.09068-37.38913,9.97418-2.89109,4.9822-6.02942,10.39077-9.1969,15.85016-10.56131,18.20324-36.8493,18.20466-47.41043.00131l-9.10649-15.6961c-7.5922-13.08606-24.35154-17.54563-37.44344-9.96351l-38.55168,22.32705c-12.9797,7.51714-17.50613,24.07127-10.15717,37.14692l8.96418,15.94954c10.24841,18.23451-2.883,40.76603-23.80003,40.83726l-17.69074.06025c-15.08648.05138-27.29501,12.2851-27.31528,27.37166l-.05986,44.54607c-.02022,15.04354,12.08861,27.29184,27.13139,27.4439l18.40106.18601c20.95715.21185,33.93196,22.91055,23.47967,41.07636l-8.94988,15.55467c-7.54139,13.10674-3.04317,29.84488,10.05241,37.40562l38.60562,22.289c13.09939,7.56294,29.84915,3.08451,37.42616-10.00674l8.98786-15.52885c10.51641-18.16981,36.71911-18.25512,47.35362-.15418l9.24803,15.74102c7.6341,12.99397,24.32677,17.38694,37.36813,9.83408l38.71548-22.42192c12.96586-7.50913,17.49881-24.03843,10.17725-37.11113l-8.76449-15.64905c-10.14866-18.12049,2.75882-40.50497,23.52565-40.79879l17.99604-.25461c14.97055-.21181,27.00106-12.3976,27.02086-27.36963l.05922-44.76633c.02-15.11405-12.19873-27.39178-27.3127-27.4446ZM359.9999,526.5282c-33.2953,0-60.28652-26.99122-60.28652-60.28652s26.99122-60.28652,60.28652-60.28652,60.28673,26.99122,60.28673,60.28652-26.99122,60.28652-60.28673,60.28652Z" style="fill:#3d617f; fill-rule:evenodd;"/></svg>