<?xml version="1.0" encoding="UTF-8"?><svg id="c" xmlns="http://www.w3.org/2000/svg" viewBox="0 0 720 720"><rect x="33.24841" y="33.24841" width="653.50318" height="653.50318" rx="96.30573" ry="96.30573" style="fill:#3d617f;"/><path d="M497.34198,405.38113l-16.42408-.0574c-19.05403-.06659-30.93573-20.68306-21.44084-37.20297l8.15863-14.195c6.82404-11.87298,2.74708-27.02934-9.11256-33.87653l-34.89111-20.14446c-11.85083-6.8421-27.00358-2.79992-33.8717,9.03585-2.61911,4.51349-5.4622,9.41325-8.33169,14.35904-9.56774,16.49075-33.38265,16.49203-42.95023.00119l-8.24978-14.21947c-6.87796-11.85497-22.06064-15.895-33.92091-9.02618l-34.92489,20.22661c-11.75862,6.80995-15.85922,21.80673-9.20163,33.65228l8.12086,14.44907c9.28428,16.51907-2.61178,36.93091-21.56101,36.99545l-16.02646.05458c-13.6672.04654-24.7272,11.12937-24.74556,24.79663l-.05423,40.35534c-.01831,13.6283,10.95136,24.72432,24.57897,24.86208l16.66995.16851c18.98558.19192,30.73977,20.75521,21.27079,37.21205l-8.10791,14.09135c-6.83192,11.87371-2.75688,27.03718,9.10672,33.88664l34.97375,20.19213c11.86704,6.85145,27.04105,2.79434,33.90525-9.06534l8.14232-14.06795c9.52706-16.46046,33.26471-16.53775,42.89877-.13968l8.37801,14.26016c6.91592,11.77155,22.0382,15.75124,33.85268,8.90893l35.07327-20.31255c11.74609-6.8027,15.85259-21.77699,9.21981-33.61986l-7.93996-14.17685c-9.19391-16.41579,2.49928-36.69442,21.31245-36.96059l16.30304-.23066c13.56217-.19188,24.4609-11.23128,24.47884-24.7948l.05365-40.55488c.01811-13.69217-11.05112-24.81487-24.74322-24.86271ZM359.99988,505.06962c-30.16301,0-54.61499-24.45199-54.61499-54.61499s24.45199-54.61499,54.61499-54.61499,54.61518,24.45199,54.61518,54.61499-24.45199,54.61499-54.61518,54.61499Z" style="fill:#fff; fill-rule:evenodd;"/><path d="M570.60923,464.17647c31.0012-20.16772,51.5004-55.1204,51.5004-94.86097,0-62.45556-50.63035-113.08565-113.0859-113.08565-5.67919,0-11.25711.43009-16.71157,1.23823.25152-3.25859.41963-6.5404.41963-9.86352,0-69.86532-56.63708-126.50265-126.50265-126.50265-66.8432,0-121.53977,51.85378-126.15037,117.52405-6.35851-1.01707-12.87416-1.56323-19.5194-1.56323-67.74828,0-122.66908,54.9208-122.66908,122.66933,0,39.60872,18.8909,77.8454,48.03884,100.56592" style="fill:none; stroke:#fff; stroke-linecap:round; stroke-linejoin:round; stroke-width:35px;"/></svg>