<?xml version="1.0" encoding="UTF-8"?><svg id="Calque_2" xmlns="http://www.w3.org/2000/svg" viewBox="0 0 400 400"><g id="Calque_1-2"><path d="M15.84076,31.67925v55.89012c0,11.46209,73.83516,25.40888,184.15924,25.40888s184.15916-13.94679,184.15916-25.40888c0-.49443.00007-55.89012.00007-55.89012" style="fill:#bcbec0; stroke:#fff; stroke-linecap:round; stroke-linejoin:round; stroke-width:3.85386px;"/><path d="M384.15919,31.67925c0,11.46211-73.83511,25.40891-184.1592,25.40891S15.84079,43.14136,15.84079,31.67925,89.67592,6.37891,199.99999,6.37891s184.1592,13.83822,184.1592,25.30034Z" style="fill:#d1d3d4; stroke:#fff; stroke-linecap:round; stroke-linejoin:round; stroke-width:3.85386px;"/><path d="M15.84076,171.90847v55.89012c0,11.46209,73.83516,25.40888,184.15924,25.40888s184.15916-13.94679,184.15916-25.40888c0-.49443.00007-55.89012.00007-55.89012" style="fill:#bcbec0; stroke:#fff; stroke-linecap:round; stroke-linejoin:round; stroke-width:3.85386px;"/><path d="M384.15919,171.90847c0,11.46211-73.83511,25.40891-184.1592,25.40891S15.84079,183.37058,15.84079,171.90847s73.83513-25.30034,184.1592-25.30034,184.1592,13.83822,184.1592,25.30034Z" style="fill:#d1d3d4; stroke:#fff; stroke-linecap:round; stroke-linejoin:round; stroke-width:3.85386px;"/><path d="M15.84076,311.77464v55.89012c0,11.46209,73.83516,25.40888,184.15924,25.40888s184.15916-13.94679,184.15916-25.40888c0-.49443.00007-55.89012.00007-55.89012" style="fill:#bcbec0; stroke:#fff; stroke-linecap:round; stroke-linejoin:round; stroke-width:3.85386px;"/><path d="M384.15919,311.77464c0,11.46211-73.83511,25.40891-184.1592,25.40891s-184.1592-13.94679-184.1592-25.40891,73.83513-25.30034,184.1592-25.30034,184.1592,13.83822,184.1592,25.30034Z" style="fill:#d1d3d4; stroke:#fff; stroke-linecap:round; stroke-linejoin:round; stroke-width:3.85386px;"/><path d="M372.14348,171.66712c-5.18651-7.05809-12.91777-20.02362-12.85444-36.85173.06251-16.60624,7.68703-29.40838,12.85444-36.44041,0,0-46.63932,17.06469-172.14348,17.06469S28.42591,98.37498,28.42591,98.37498c5.27433,7.18006,13.21955,20.51511,12.85443,37.80013-.33894,16.04565-7.6907,28.46478-12.85443,35.49201,0,0,46.06993,19.05328,171.57409,19.05328s172.14348-19.05328,172.14348-19.05328Z" style="fill:#00a79d; opacity:.25;"/><path d="M372.14348,310.84801c-5.18651-7.05809-12.91777-20.02362-12.85444-36.85173.06251-16.60624,7.68703-29.40838,12.85444-36.44041,0,0-46.63932,17.06469-172.14348,17.06469s-171.57409-17.06469-171.57409-17.06469c5.27433,7.18006,13.21955,20.51511,12.85443,37.80013-.33894,16.04565-7.6907,28.46478-12.85443,35.49201,0,0,46.06993,19.05328,171.57409,19.05328s172.14348-19.05328,172.14348-19.05328Z" style="fill:#00a79d; opacity:.25;"/><line x1="64.31148" y1="256.13376" x2="50.79181" y2="269.65343" style="fill:#fff; stroke:#00a79d; stroke-linecap:round; stroke-linejoin:round; stroke-width:4px;"/><line x1="65.58373" y1="281.43086" x2="46.61598" y2="300.3986" style="fill:#fff; stroke:#00a79d; stroke-linecap:round; stroke-linejoin:round; stroke-width:4px;"/><line x1="86.94199" y1="260.07259" x2="76.01685" y2="270.99774" style="fill:#fff; stroke:#00a79d; stroke-linecap:round; stroke-linejoin:round; stroke-width:4px;"/><line x1="63.0564" y1="294.58691" x2="81.47942" y2="313.00993" style="fill:#fff; stroke:#00a79d; stroke-linecap:round; stroke-linejoin:round; stroke-width:4px;"/><line x1="46.61598" y1="278.1465" x2="52.19807" y2="283.72858" style="fill:#fff; stroke:#00a79d; stroke-linecap:round; stroke-linejoin:round; stroke-width:4px;"/><line x1="89.22072" y1="294.56267" x2="99.26485" y2="304.60679" style="fill:#fff; stroke:#00a79d; stroke-linecap:round; stroke-linejoin:round; stroke-width:4px;"/><line x1="62.81762" y1="268.15956" x2="79.09334" y2="284.43528" style="fill:#fff; stroke:#00a79d; stroke-linecap:round; stroke-linejoin:round; stroke-width:4px;"/><line x1="50.79181" y1="256.13376" x2="52.11249" y2="257.45443" style="fill:#fff; stroke:#00a79d; stroke-linecap:round; stroke-linejoin:round; stroke-width:4px;"/><line x1="103.15508" y1="270.46718" x2="110.42374" y2="263.19852" style="fill:#fff; stroke:#00a79d; stroke-linecap:round; stroke-linejoin:round; stroke-width:4px;"/><line x1="76.55635" y1="297.06591" x2="92.68472" y2="280.93754" style="fill:#fff; stroke:#00a79d; stroke-linecap:round; stroke-linejoin:round; stroke-width:4px;"/><line x1="61.79333" y1="311.82893" x2="65.8175" y2="307.80476" style="fill:#fff; stroke:#00a79d; stroke-linecap:round; stroke-linejoin:round; stroke-width:4px;"/><line x1="90.29718" y1="268.15956" x2="108.61193" y2="286.47431" style="fill:#fff; stroke:#00a79d; stroke-linecap:round; stroke-linejoin:round; stroke-width:4px;"/><line x1="355.20383" y1="293.43312" x2="339.43268" y2="309.20427" style="fill:#fff; stroke:#00a79d; stroke-linecap:round; stroke-linejoin:round; stroke-width:4px;"/><line x1="351.87262" y1="306.61146" x2="354.46543" y2="309.20427" style="fill:#fff; stroke:#00a79d; stroke-linecap:round; stroke-linejoin:round; stroke-width:4px;"/><line x1="325.92635" y1="280.66519" x2="341.36323" y2="296.10207" style="fill:#fff; stroke:#00a79d; stroke-linecap:round; stroke-linejoin:round; stroke-width:4px;"/><line x1="329.76424" y1="295.37989" x2="310.11406" y2="316.97452" style="fill:#fff; stroke:#00a79d; stroke-linecap:round; stroke-linejoin:round; stroke-width:4px;"/><line x1="347.31826" y1="276.26017" x2="339.93557" y2="284.42625" style="fill:#fff; stroke:#00a79d; stroke-linecap:round; stroke-linejoin:round; stroke-width:4px;"/><line x1="317.1064" y1="297.69617" x2="315.88983" y2="296.47961" style="fill:#fff; stroke:#00a79d; stroke-linecap:round; stroke-linejoin:round; stroke-width:4px;"/><line x1="332.80066" y1="313.39043" x2="327.82613" y2="308.41591" style="fill:#fff; stroke:#00a79d; stroke-linecap:round; stroke-linejoin:round; stroke-width:4px;"/><line x1="76.2898" y1="169.56288" x2="81.84399" y2="175.11708" style="fill:#fff; stroke:#00a79d; stroke-linecap:round; stroke-linejoin:round; stroke-width:4px;"/><line x1="47.66932" y1="140.94241" x2="65.28702" y2="158.56011" style="fill:#fff; stroke:#00a79d; stroke-linecap:round; stroke-linejoin:round; stroke-width:4px;"/><line x1="77.54596" y1="142.19857" x2="116.49041" y2="181.14303" style="fill:#fff; stroke:#00a79d; stroke-linecap:round; stroke-linejoin:round; stroke-width:4px;"/><line x1="50.78826" y1="115.44087" x2="65.79734" y2="130.44995" style="fill:#fff; stroke:#00a79d; stroke-linecap:round; stroke-linejoin:round; stroke-width:4px;"/><line x1="51.07134" y1="156.78304" x2="45.62569" y2="162.22869" style="fill:#fff; stroke:#00a79d; stroke-linecap:round; stroke-linejoin:round; stroke-width:4px;"/><line x1="79.73611" y1="128.11827" x2="63.30669" y2="144.54769" style="fill:#fff; stroke:#00a79d; stroke-linecap:round; stroke-linejoin:round; stroke-width:4px;"/><line x1="79.83326" y1="155.34757" x2="62.2385" y2="172.94232" style="fill:#fff; stroke:#00a79d; stroke-linecap:round; stroke-linejoin:round; stroke-width:4px;"/><line x1="112.53584" y1="122.64499" x2="91.04901" y2="144.13182" style="fill:#fff; stroke:#00a79d; stroke-linecap:round; stroke-linejoin:round; stroke-width:4px;"/><line x1="104.94691" y1="141.60086" x2="118.02523" y2="154.67917" style="fill:#fff; stroke:#00a79d; stroke-linecap:round; stroke-linejoin:round; stroke-width:4px;"/><line x1="77.54596" y1="114.1999" x2="93.3673" y2="130.02124" style="fill:#fff; stroke:#00a79d; stroke-linecap:round; stroke-linejoin:round; stroke-width:4px;"/><line x1="354.25234" y1="159.31728" x2="340.70252" y2="145.76746" style="fill:#fff; stroke:#00a79d; stroke-linecap:round; stroke-linejoin:round; stroke-width:4px;"/><line x1="329.97816" y1="156.2838" x2="317.85674" y2="144.16238" style="fill:#fff; stroke:#00a79d; stroke-linecap:round; stroke-linejoin:round; stroke-width:4px;"/><line x1="346.63668" y1="172.94232" x2="340.52584" y2="166.83148" style="fill:#fff; stroke:#00a79d; stroke-linecap:round; stroke-linejoin:round; stroke-width:4px;"/><line x1="340.52584" y1="156.2838" x2="325.69401" y2="171.11563" style="fill:#fff; stroke:#00a79d; stroke-linecap:round; stroke-linejoin:round; stroke-width:4px;"/><line x1="353.41159" y1="143.39805" x2="351.04218" y2="145.76746" style="fill:#fff; stroke:#00a79d; stroke-linecap:round; stroke-linejoin:round; stroke-width:4px;"/><line x1="319.17355" y1="156.2838" x2="312.99619" y2="162.46116" style="fill:#fff; stroke:#00a79d; stroke-linecap:round; stroke-linejoin:round; stroke-width:4px;"/><line x1="344.89097" y1="130.56639" x2="329.97816" y2="145.4792" style="fill:#fff; stroke:#00a79d; stroke-linecap:round; stroke-linejoin:round; stroke-width:4px;"/><rect width="400" height="400" style="fill:none;"/></g></svg>